<mxfile host="Electron" modified="2025-09-10T23:48:40.978Z" agent="Mozilla/5.0 (Windows NT 10.0; Win64; x64) AppleWebKit/537.36 (KHTML, like Gecko) draw.io/22.1.2 Chrome/114.0.5735.289 Electron/25.9.4 Safari/537.36" etag="r7yrrX6TISWW-OypKRsK" version="22.1.2" type="device">
  <diagram name="第 1 页" id="bQ7u5JqbQiKnkFouc3z6">
    <mxGraphModel dx="1709" dy="1276" grid="1" gridSize="10" guides="1" tooltips="1" connect="1" arrows="1" fold="1" page="1" pageScale="1" pageWidth="1600" pageHeight="800" math="0" shadow="0">
      <root>
        <mxCell id="0" />
        <mxCell id="1" parent="0" />
        <mxCell id="xR4tNGhymv9jSeOwLgOK-1" value="" style="endArrow=none;html=1;rounded=0;entryX=1;entryY=1;entryDx=0;entryDy=0;" edge="1" parent="1" target="xR4tNGhymv9jSeOwLgOK-11">
          <mxGeometry width="50" height="50" relative="1" as="geometry">
            <mxPoint x="120" y="210" as="sourcePoint" />
            <mxPoint x="490" y="210" as="targetPoint" />
          </mxGeometry>
        </mxCell>
        <mxCell id="xR4tNGhymv9jSeOwLgOK-2" value="&lt;font face=&quot;Verdana&quot; style=&quot;font-size: 13px;&quot;&gt;productpage service&lt;/font&gt;" style="text;html=1;strokeColor=none;fillColor=none;align=center;verticalAlign=middle;whiteSpace=wrap;rounded=0;" vertex="1" parent="1">
          <mxGeometry x="31" y="196" width="80" height="30" as="geometry" />
        </mxCell>
        <mxCell id="xR4tNGhymv9jSeOwLgOK-3" value="" style="shape=partialRectangle;whiteSpace=wrap;html=1;top=0;bottom=0;fillColor=none;" vertex="1" parent="1">
          <mxGeometry x="120" y="190" width="50" height="20" as="geometry" />
        </mxCell>
        <mxCell id="xR4tNGhymv9jSeOwLgOK-4" value="parse request1" style="text;html=1;strokeColor=none;fillColor=none;align=center;verticalAlign=middle;whiteSpace=wrap;rounded=0;" vertex="1" parent="1">
          <mxGeometry x="110" y="215" width="60" height="30" as="geometry" />
        </mxCell>
        <mxCell id="xR4tNGhymv9jSeOwLgOK-8" value="" style="shape=partialRectangle;whiteSpace=wrap;html=1;top=0;bottom=0;fillColor=none;" vertex="1" parent="1">
          <mxGeometry x="170" y="190" width="121" height="20" as="geometry" />
        </mxCell>
        <mxCell id="xR4tNGhymv9jSeOwLgOK-9" value="application process" style="text;html=1;strokeColor=none;fillColor=none;align=center;verticalAlign=middle;whiteSpace=wrap;rounded=0;" vertex="1" parent="1">
          <mxGeometry x="160.5" y="215" width="140" height="30" as="geometry" />
        </mxCell>
        <mxCell id="xR4tNGhymv9jSeOwLgOK-11" value="" style="shape=partialRectangle;whiteSpace=wrap;html=1;top=0;bottom=0;fillColor=none;" vertex="1" parent="1">
          <mxGeometry x="291" y="190" width="40" height="20" as="geometry" />
        </mxCell>
        <mxCell id="xR4tNGhymv9jSeOwLgOK-13" value="encode request2" style="text;html=1;strokeColor=none;fillColor=none;align=center;verticalAlign=middle;whiteSpace=wrap;rounded=0;" vertex="1" parent="1">
          <mxGeometry x="271" y="215" width="80" height="30" as="geometry" />
        </mxCell>
        <mxCell id="xR4tNGhymv9jSeOwLgOK-15" value="" style="endArrow=none;html=1;rounded=0;exitX=1;exitY=1;exitDx=0;exitDy=0;" edge="1" parent="1">
          <mxGeometry width="50" height="50" relative="1" as="geometry">
            <mxPoint x="331.9999999999998" y="210" as="sourcePoint" />
            <mxPoint x="362" y="340" as="targetPoint" />
          </mxGeometry>
        </mxCell>
        <mxCell id="xR4tNGhymv9jSeOwLgOK-16" value="&lt;font face=&quot;Verdana&quot; style=&quot;font-size: 13px;&quot;&gt;productpage sidecar&lt;/font&gt;" style="text;html=1;strokeColor=none;fillColor=none;align=center;verticalAlign=middle;whiteSpace=wrap;rounded=0;" vertex="1" parent="1">
          <mxGeometry x="31" y="320" width="80" height="30" as="geometry" />
        </mxCell>
        <mxCell id="xR4tNGhymv9jSeOwLgOK-17" value="" style="endArrow=none;html=1;rounded=0;" edge="1" parent="1">
          <mxGeometry width="50" height="50" relative="1" as="geometry">
            <mxPoint x="362" y="340" as="sourcePoint" />
            <mxPoint x="412" y="340" as="targetPoint" />
          </mxGeometry>
        </mxCell>
        <mxCell id="xR4tNGhymv9jSeOwLgOK-18" value="" style="shape=partialRectangle;whiteSpace=wrap;html=1;top=0;bottom=0;fillColor=none;" vertex="1" parent="1">
          <mxGeometry x="362" y="320" width="50" height="20" as="geometry" />
        </mxCell>
        <mxCell id="xR4tNGhymv9jSeOwLgOK-19" value="parse request2" style="text;html=1;strokeColor=none;fillColor=none;align=center;verticalAlign=middle;whiteSpace=wrap;rounded=0;" vertex="1" parent="1">
          <mxGeometry x="353" y="340" width="64" height="30" as="geometry" />
        </mxCell>
        <mxCell id="xR4tNGhymv9jSeOwLgOK-20" value="" style="endArrow=none;html=1;rounded=0;exitX=0.75;exitY=0;exitDx=0;exitDy=0;" edge="1" parent="1" source="xR4tNGhymv9jSeOwLgOK-19">
          <mxGeometry width="50" height="50" relative="1" as="geometry">
            <mxPoint x="302" y="370" as="sourcePoint" />
            <mxPoint x="472" y="340" as="targetPoint" />
          </mxGeometry>
        </mxCell>
        <mxCell id="xR4tNGhymv9jSeOwLgOK-21" value="" style="shape=partialRectangle;whiteSpace=wrap;html=1;top=0;bottom=0;fillColor=none;" vertex="1" parent="1">
          <mxGeometry x="412" y="320" width="60" height="20" as="geometry" />
        </mxCell>
        <mxCell id="xR4tNGhymv9jSeOwLgOK-22" value="request filters" style="text;html=1;strokeColor=none;fillColor=none;align=center;verticalAlign=middle;whiteSpace=wrap;rounded=0;" vertex="1" parent="1">
          <mxGeometry x="412" y="340" width="60" height="30" as="geometry" />
        </mxCell>
        <mxCell id="xR4tNGhymv9jSeOwLgOK-26" value="" style="endArrow=none;html=1;rounded=0;exitX=1;exitY=0;exitDx=0;exitDy=0;" edge="1" parent="1" source="xR4tNGhymv9jSeOwLgOK-22">
          <mxGeometry width="50" height="50" relative="1" as="geometry">
            <mxPoint x="522" y="360" as="sourcePoint" />
            <mxPoint x="522" y="340" as="targetPoint" />
          </mxGeometry>
        </mxCell>
        <mxCell id="xR4tNGhymv9jSeOwLgOK-27" value="" style="shape=partialRectangle;whiteSpace=wrap;html=1;top=0;bottom=0;fillColor=none;" vertex="1" parent="1">
          <mxGeometry x="472" y="320" width="50" height="20" as="geometry" />
        </mxCell>
        <mxCell id="xR4tNGhymv9jSeOwLgOK-28" value="encode request2" style="text;html=1;strokeColor=none;fillColor=none;align=center;verticalAlign=middle;whiteSpace=wrap;rounded=0;" vertex="1" parent="1">
          <mxGeometry x="457" y="340" width="80" height="30" as="geometry" />
        </mxCell>
        <mxCell id="xR4tNGhymv9jSeOwLgOK-29" value="" style="endArrow=none;dashed=1;html=1;dashPattern=1 3;strokeWidth=1;rounded=0;" edge="1" parent="1">
          <mxGeometry width="50" height="50" relative="1" as="geometry">
            <mxPoint x="121" y="340" as="sourcePoint" />
            <mxPoint x="361" y="340" as="targetPoint" />
          </mxGeometry>
        </mxCell>
        <mxCell id="xR4tNGhymv9jSeOwLgOK-32" value="" style="endArrow=none;html=1;rounded=0;exitX=1;exitY=1;exitDx=0;exitDy=0;" edge="1" parent="1">
          <mxGeometry width="50" height="50" relative="1" as="geometry">
            <mxPoint x="522" y="340" as="sourcePoint" />
            <mxPoint x="552" y="470" as="targetPoint" />
          </mxGeometry>
        </mxCell>
        <mxCell id="xR4tNGhymv9jSeOwLgOK-33" value="&lt;font face=&quot;Verdana&quot; style=&quot;font-size: 13px;&quot;&gt;detail sidecar&lt;/font&gt;" style="text;html=1;strokeColor=none;fillColor=none;align=center;verticalAlign=middle;whiteSpace=wrap;rounded=0;" vertex="1" parent="1">
          <mxGeometry x="31" y="450" width="80" height="30" as="geometry" />
        </mxCell>
        <mxCell id="xR4tNGhymv9jSeOwLgOK-34" value="" style="endArrow=none;html=1;rounded=0;" edge="1" parent="1">
          <mxGeometry width="50" height="50" relative="1" as="geometry">
            <mxPoint x="553" y="470" as="sourcePoint" />
            <mxPoint x="603" y="470" as="targetPoint" />
          </mxGeometry>
        </mxCell>
        <mxCell id="xR4tNGhymv9jSeOwLgOK-35" value="" style="shape=partialRectangle;whiteSpace=wrap;html=1;top=0;bottom=0;fillColor=none;" vertex="1" parent="1">
          <mxGeometry x="553" y="450" width="50" height="20" as="geometry" />
        </mxCell>
        <mxCell id="xR4tNGhymv9jSeOwLgOK-36" value="parse request2" style="text;html=1;strokeColor=none;fillColor=none;align=center;verticalAlign=middle;whiteSpace=wrap;rounded=0;" vertex="1" parent="1">
          <mxGeometry x="544" y="470" width="64" height="30" as="geometry" />
        </mxCell>
        <mxCell id="xR4tNGhymv9jSeOwLgOK-37" value="" style="endArrow=none;html=1;rounded=0;exitX=0.75;exitY=0;exitDx=0;exitDy=0;" edge="1" parent="1" source="xR4tNGhymv9jSeOwLgOK-36">
          <mxGeometry width="50" height="50" relative="1" as="geometry">
            <mxPoint x="493" y="500" as="sourcePoint" />
            <mxPoint x="663" y="470" as="targetPoint" />
          </mxGeometry>
        </mxCell>
        <mxCell id="xR4tNGhymv9jSeOwLgOK-38" value="" style="shape=partialRectangle;whiteSpace=wrap;html=1;top=0;bottom=0;fillColor=none;" vertex="1" parent="1">
          <mxGeometry x="603" y="450" width="60" height="20" as="geometry" />
        </mxCell>
        <mxCell id="xR4tNGhymv9jSeOwLgOK-39" value="request filters" style="text;html=1;strokeColor=none;fillColor=none;align=center;verticalAlign=middle;whiteSpace=wrap;rounded=0;" vertex="1" parent="1">
          <mxGeometry x="603" y="470" width="60" height="30" as="geometry" />
        </mxCell>
        <mxCell id="xR4tNGhymv9jSeOwLgOK-40" value="" style="shape=partialRectangle;whiteSpace=wrap;html=1;top=0;bottom=0;fillColor=none;" vertex="1" parent="1">
          <mxGeometry x="663" y="450" width="50" height="20" as="geometry" />
        </mxCell>
        <mxCell id="xR4tNGhymv9jSeOwLgOK-41" value="encode request2" style="text;html=1;strokeColor=none;fillColor=none;align=center;verticalAlign=middle;whiteSpace=wrap;rounded=0;" vertex="1" parent="1">
          <mxGeometry x="648" y="470" width="80" height="30" as="geometry" />
        </mxCell>
        <mxCell id="xR4tNGhymv9jSeOwLgOK-42" value="" style="endArrow=none;html=1;rounded=0;entryX=0.799;entryY=-0.006;entryDx=0;entryDy=0;exitX=0.191;exitY=0.004;exitDx=0;exitDy=0;entryPerimeter=0;exitPerimeter=0;" edge="1" parent="1" source="xR4tNGhymv9jSeOwLgOK-41" target="xR4tNGhymv9jSeOwLgOK-41">
          <mxGeometry width="50" height="50" relative="1" as="geometry">
            <mxPoint x="421" y="410" as="sourcePoint" />
            <mxPoint x="471" y="360" as="targetPoint" />
          </mxGeometry>
        </mxCell>
        <mxCell id="xR4tNGhymv9jSeOwLgOK-43" value="" style="endArrow=none;dashed=1;html=1;dashPattern=1 3;strokeWidth=1;rounded=0;" edge="1" parent="1">
          <mxGeometry width="50" height="50" relative="1" as="geometry">
            <mxPoint x="121" y="470" as="sourcePoint" />
            <mxPoint x="553" y="469" as="targetPoint" />
          </mxGeometry>
        </mxCell>
        <mxCell id="xR4tNGhymv9jSeOwLgOK-44" value="&lt;font face=&quot;Verdana&quot; style=&quot;font-size: 13px;&quot;&gt;detail service&lt;/font&gt;" style="text;html=1;strokeColor=none;fillColor=none;align=center;verticalAlign=middle;whiteSpace=wrap;rounded=0;" vertex="1" parent="1">
          <mxGeometry x="30" y="580" width="80" height="30" as="geometry" />
        </mxCell>
        <mxCell id="xR4tNGhymv9jSeOwLgOK-45" value="" style="endArrow=none;html=1;rounded=0;exitX=1;exitY=1;exitDx=0;exitDy=0;" edge="1" parent="1">
          <mxGeometry width="50" height="50" relative="1" as="geometry">
            <mxPoint x="713" y="470" as="sourcePoint" />
            <mxPoint x="743" y="600" as="targetPoint" />
          </mxGeometry>
        </mxCell>
        <mxCell id="xR4tNGhymv9jSeOwLgOK-46" value="" style="endArrow=none;dashed=1;html=1;dashPattern=1 3;strokeWidth=1;rounded=0;" edge="1" parent="1">
          <mxGeometry width="50" height="50" relative="1" as="geometry">
            <mxPoint x="121" y="600" as="sourcePoint" />
            <mxPoint x="741" y="600" as="targetPoint" />
          </mxGeometry>
        </mxCell>
        <mxCell id="xR4tNGhymv9jSeOwLgOK-56" value="" style="endArrow=none;html=1;rounded=0;entryX=1;entryY=1;entryDx=0;entryDy=0;" edge="1" parent="1" target="xR4tNGhymv9jSeOwLgOK-61">
          <mxGeometry width="50" height="50" relative="1" as="geometry">
            <mxPoint x="744" y="600" as="sourcePoint" />
            <mxPoint x="1114" y="600" as="targetPoint" />
          </mxGeometry>
        </mxCell>
        <mxCell id="xR4tNGhymv9jSeOwLgOK-57" value="" style="shape=partialRectangle;whiteSpace=wrap;html=1;top=0;bottom=0;fillColor=none;" vertex="1" parent="1">
          <mxGeometry x="744" y="580" width="50" height="20" as="geometry" />
        </mxCell>
        <mxCell id="xR4tNGhymv9jSeOwLgOK-58" value="parse request2" style="text;html=1;strokeColor=none;fillColor=none;align=center;verticalAlign=middle;whiteSpace=wrap;rounded=0;" vertex="1" parent="1">
          <mxGeometry x="734" y="605" width="60" height="30" as="geometry" />
        </mxCell>
        <mxCell id="xR4tNGhymv9jSeOwLgOK-59" value="" style="shape=partialRectangle;whiteSpace=wrap;html=1;top=0;bottom=0;fillColor=none;" vertex="1" parent="1">
          <mxGeometry x="794" y="580" width="121" height="20" as="geometry" />
        </mxCell>
        <mxCell id="xR4tNGhymv9jSeOwLgOK-60" value="application process" style="text;html=1;strokeColor=none;fillColor=none;align=center;verticalAlign=middle;whiteSpace=wrap;rounded=0;" vertex="1" parent="1">
          <mxGeometry x="784.5" y="605" width="140" height="30" as="geometry" />
        </mxCell>
        <mxCell id="xR4tNGhymv9jSeOwLgOK-61" value="" style="shape=partialRectangle;whiteSpace=wrap;html=1;top=0;bottom=0;fillColor=none;" vertex="1" parent="1">
          <mxGeometry x="915" y="580" width="40" height="20" as="geometry" />
        </mxCell>
        <mxCell id="xR4tNGhymv9jSeOwLgOK-62" value="encode response" style="text;html=1;strokeColor=none;fillColor=none;align=center;verticalAlign=middle;whiteSpace=wrap;rounded=0;" vertex="1" parent="1">
          <mxGeometry x="895" y="605" width="80" height="30" as="geometry" />
        </mxCell>
        <mxCell id="xR4tNGhymv9jSeOwLgOK-63" value="" style="endArrow=none;html=1;rounded=0;" edge="1" parent="1">
          <mxGeometry width="50" height="50" relative="1" as="geometry">
            <mxPoint x="980" y="470" as="sourcePoint" />
            <mxPoint x="955" y="600" as="targetPoint" />
          </mxGeometry>
        </mxCell>
        <mxCell id="xR4tNGhymv9jSeOwLgOK-64" value="" style="endArrow=none;html=1;rounded=0;" edge="1" parent="1">
          <mxGeometry width="50" height="50" relative="1" as="geometry">
            <mxPoint x="979" y="470" as="sourcePoint" />
            <mxPoint x="1029" y="470" as="targetPoint" />
          </mxGeometry>
        </mxCell>
        <mxCell id="xR4tNGhymv9jSeOwLgOK-65" value="" style="shape=partialRectangle;whiteSpace=wrap;html=1;top=0;bottom=0;fillColor=none;" vertex="1" parent="1">
          <mxGeometry x="979" y="450" width="50" height="20" as="geometry" />
        </mxCell>
        <mxCell id="xR4tNGhymv9jSeOwLgOK-66" value="parse response" style="text;html=1;strokeColor=none;fillColor=none;align=center;verticalAlign=middle;whiteSpace=wrap;rounded=0;" vertex="1" parent="1">
          <mxGeometry x="970" y="470" width="64" height="30" as="geometry" />
        </mxCell>
        <mxCell id="xR4tNGhymv9jSeOwLgOK-67" value="" style="endArrow=none;html=1;rounded=0;exitX=0.75;exitY=0;exitDx=0;exitDy=0;" edge="1" parent="1" source="xR4tNGhymv9jSeOwLgOK-66">
          <mxGeometry width="50" height="50" relative="1" as="geometry">
            <mxPoint x="919" y="500" as="sourcePoint" />
            <mxPoint x="1089" y="470" as="targetPoint" />
          </mxGeometry>
        </mxCell>
        <mxCell id="xR4tNGhymv9jSeOwLgOK-68" value="" style="shape=partialRectangle;whiteSpace=wrap;html=1;top=0;bottom=0;fillColor=none;" vertex="1" parent="1">
          <mxGeometry x="1029" y="450" width="60" height="20" as="geometry" />
        </mxCell>
        <mxCell id="xR4tNGhymv9jSeOwLgOK-69" value="response filters" style="text;html=1;strokeColor=none;fillColor=none;align=center;verticalAlign=middle;whiteSpace=wrap;rounded=0;" vertex="1" parent="1">
          <mxGeometry x="1029" y="470" width="60" height="30" as="geometry" />
        </mxCell>
        <mxCell id="xR4tNGhymv9jSeOwLgOK-70" value="" style="shape=partialRectangle;whiteSpace=wrap;html=1;top=0;bottom=0;fillColor=none;" vertex="1" parent="1">
          <mxGeometry x="1089" y="450" width="50" height="20" as="geometry" />
        </mxCell>
        <mxCell id="xR4tNGhymv9jSeOwLgOK-71" value="encode response" style="text;html=1;strokeColor=none;fillColor=none;align=center;verticalAlign=middle;whiteSpace=wrap;rounded=0;" vertex="1" parent="1">
          <mxGeometry x="1074" y="470" width="80" height="30" as="geometry" />
        </mxCell>
        <mxCell id="xR4tNGhymv9jSeOwLgOK-72" value="" style="endArrow=none;html=1;rounded=0;entryX=0.799;entryY=-0.006;entryDx=0;entryDy=0;exitX=0.191;exitY=0.004;exitDx=0;exitDy=0;entryPerimeter=0;exitPerimeter=0;" edge="1" parent="1" source="xR4tNGhymv9jSeOwLgOK-71" target="xR4tNGhymv9jSeOwLgOK-71">
          <mxGeometry width="50" height="50" relative="1" as="geometry">
            <mxPoint x="847" y="410" as="sourcePoint" />
            <mxPoint x="897" y="360" as="targetPoint" />
          </mxGeometry>
        </mxCell>
        <mxCell id="xR4tNGhymv9jSeOwLgOK-73" value="" style="endArrow=none;html=1;rounded=0;" edge="1" parent="1">
          <mxGeometry width="50" height="50" relative="1" as="geometry">
            <mxPoint x="1164" y="340" as="sourcePoint" />
            <mxPoint x="1139" y="470" as="targetPoint" />
          </mxGeometry>
        </mxCell>
        <mxCell id="xR4tNGhymv9jSeOwLgOK-74" value="" style="endArrow=none;html=1;rounded=0;" edge="1" parent="1">
          <mxGeometry width="50" height="50" relative="1" as="geometry">
            <mxPoint x="1163" y="340" as="sourcePoint" />
            <mxPoint x="1213" y="340" as="targetPoint" />
          </mxGeometry>
        </mxCell>
        <mxCell id="xR4tNGhymv9jSeOwLgOK-75" value="" style="shape=partialRectangle;whiteSpace=wrap;html=1;top=0;bottom=0;fillColor=none;" vertex="1" parent="1">
          <mxGeometry x="1163" y="320" width="50" height="20" as="geometry" />
        </mxCell>
        <mxCell id="xR4tNGhymv9jSeOwLgOK-76" value="parse response" style="text;html=1;strokeColor=none;fillColor=none;align=center;verticalAlign=middle;whiteSpace=wrap;rounded=0;" vertex="1" parent="1">
          <mxGeometry x="1154" y="340" width="64" height="30" as="geometry" />
        </mxCell>
        <mxCell id="xR4tNGhymv9jSeOwLgOK-77" value="" style="endArrow=none;html=1;rounded=0;exitX=0.75;exitY=0;exitDx=0;exitDy=0;" edge="1" parent="1" source="xR4tNGhymv9jSeOwLgOK-76">
          <mxGeometry width="50" height="50" relative="1" as="geometry">
            <mxPoint x="1103" y="370" as="sourcePoint" />
            <mxPoint x="1273" y="340" as="targetPoint" />
          </mxGeometry>
        </mxCell>
        <mxCell id="xR4tNGhymv9jSeOwLgOK-78" value="" style="shape=partialRectangle;whiteSpace=wrap;html=1;top=0;bottom=0;fillColor=none;" vertex="1" parent="1">
          <mxGeometry x="1213" y="320" width="60" height="20" as="geometry" />
        </mxCell>
        <mxCell id="xR4tNGhymv9jSeOwLgOK-79" value="response filters" style="text;html=1;strokeColor=none;fillColor=none;align=center;verticalAlign=middle;whiteSpace=wrap;rounded=0;" vertex="1" parent="1">
          <mxGeometry x="1213" y="340" width="60" height="30" as="geometry" />
        </mxCell>
        <mxCell id="xR4tNGhymv9jSeOwLgOK-80" value="" style="shape=partialRectangle;whiteSpace=wrap;html=1;top=0;bottom=0;fillColor=none;" vertex="1" parent="1">
          <mxGeometry x="1273" y="320" width="50" height="20" as="geometry" />
        </mxCell>
        <mxCell id="xR4tNGhymv9jSeOwLgOK-81" value="encode response" style="text;html=1;strokeColor=none;fillColor=none;align=center;verticalAlign=middle;whiteSpace=wrap;rounded=0;" vertex="1" parent="1">
          <mxGeometry x="1258" y="340" width="80" height="30" as="geometry" />
        </mxCell>
        <mxCell id="xR4tNGhymv9jSeOwLgOK-82" value="" style="endArrow=none;html=1;rounded=0;entryX=0.799;entryY=-0.006;entryDx=0;entryDy=0;exitX=0.191;exitY=0.004;exitDx=0;exitDy=0;entryPerimeter=0;exitPerimeter=0;" edge="1" parent="1" source="xR4tNGhymv9jSeOwLgOK-81" target="xR4tNGhymv9jSeOwLgOK-81">
          <mxGeometry width="50" height="50" relative="1" as="geometry">
            <mxPoint x="1031" y="280" as="sourcePoint" />
            <mxPoint x="1081" y="230" as="targetPoint" />
          </mxGeometry>
        </mxCell>
        <mxCell id="xR4tNGhymv9jSeOwLgOK-83" value="" style="endArrow=none;html=1;rounded=0;" edge="1" parent="1">
          <mxGeometry width="50" height="50" relative="1" as="geometry">
            <mxPoint x="1348" y="210" as="sourcePoint" />
            <mxPoint x="1323" y="340" as="targetPoint" />
          </mxGeometry>
        </mxCell>
        <mxCell id="xR4tNGhymv9jSeOwLgOK-84" value="" style="shape=partialRectangle;whiteSpace=wrap;html=1;top=0;bottom=0;fillColor=none;" vertex="1" parent="1">
          <mxGeometry x="1348" y="190" width="50" height="20" as="geometry" />
        </mxCell>
        <mxCell id="xR4tNGhymv9jSeOwLgOK-85" value="parse response" style="text;html=1;strokeColor=none;fillColor=none;align=center;verticalAlign=middle;whiteSpace=wrap;rounded=0;" vertex="1" parent="1">
          <mxGeometry x="1338" y="215" width="60" height="30" as="geometry" />
        </mxCell>
        <mxCell id="xR4tNGhymv9jSeOwLgOK-86" value="" style="shape=partialRectangle;whiteSpace=wrap;html=1;top=0;bottom=0;fillColor=none;" vertex="1" parent="1">
          <mxGeometry x="1398" y="190" width="121" height="20" as="geometry" />
        </mxCell>
        <mxCell id="xR4tNGhymv9jSeOwLgOK-87" value="application process" style="text;html=1;strokeColor=none;fillColor=none;align=center;verticalAlign=middle;whiteSpace=wrap;rounded=0;" vertex="1" parent="1">
          <mxGeometry x="1388.5" y="215" width="140" height="30" as="geometry" />
        </mxCell>
        <mxCell id="xR4tNGhymv9jSeOwLgOK-88" value="" style="endArrow=none;html=1;rounded=0;entryX=1;entryY=1;entryDx=0;entryDy=0;exitX=0;exitY=1;exitDx=0;exitDy=0;" edge="1" parent="1" source="xR4tNGhymv9jSeOwLgOK-84" target="xR4tNGhymv9jSeOwLgOK-86">
          <mxGeometry width="50" height="50" relative="1" as="geometry">
            <mxPoint x="940" y="400" as="sourcePoint" />
            <mxPoint x="990" y="350" as="targetPoint" />
          </mxGeometry>
        </mxCell>
        <mxCell id="xR4tNGhymv9jSeOwLgOK-89" value="" style="endArrow=none;html=1;rounded=0;dashed=1;strokeWidth=2;" edge="1" parent="1">
          <mxGeometry width="50" height="50" relative="1" as="geometry">
            <mxPoint x="330" y="210" as="sourcePoint" />
            <mxPoint x="1350" y="210" as="targetPoint" />
          </mxGeometry>
        </mxCell>
        <mxCell id="xR4tNGhymv9jSeOwLgOK-91" value="wating time" style="text;html=1;strokeColor=none;fillColor=none;align=center;verticalAlign=middle;whiteSpace=wrap;rounded=0;" vertex="1" parent="1">
          <mxGeometry x="794" y="180" width="116" height="30" as="geometry" />
        </mxCell>
        <mxCell id="xR4tNGhymv9jSeOwLgOK-92" value="" style="endArrow=none;html=1;rounded=0;dashed=1;strokeWidth=2;exitX=0.75;exitY=0;exitDx=0;exitDy=0;entryX=0;entryY=0;entryDx=0;entryDy=0;" edge="1" parent="1" source="xR4tNGhymv9jSeOwLgOK-28" target="xR4tNGhymv9jSeOwLgOK-76">
          <mxGeometry width="50" height="50" relative="1" as="geometry">
            <mxPoint x="340" y="220" as="sourcePoint" />
            <mxPoint x="1360" y="220" as="targetPoint" />
          </mxGeometry>
        </mxCell>
        <mxCell id="xR4tNGhymv9jSeOwLgOK-93" value="" style="endArrow=none;html=1;rounded=0;dashed=1;strokeWidth=2;exitX=1;exitY=1;exitDx=0;exitDy=0;entryX=0.25;entryY=0;entryDx=0;entryDy=0;" edge="1" parent="1" source="xR4tNGhymv9jSeOwLgOK-40" target="xR4tNGhymv9jSeOwLgOK-66">
          <mxGeometry width="50" height="50" relative="1" as="geometry">
            <mxPoint x="527" y="350" as="sourcePoint" />
            <mxPoint x="1164" y="350" as="targetPoint" />
          </mxGeometry>
        </mxCell>
      </root>
    </mxGraphModel>
  </diagram>
</mxfile>
